# xmcd
# 
# Track frame offsets:
#   150
#   17712
#   35497
#   52477
#   69430
#   87100
#   104025
#   118815
#   134700
#   147372
#   161305
#   173607
#   191830
#   207737
# 
# Disc length: 2957 seconds
# 
# Revision: 1
# Processed by: cddbd v1.5.1PL2 Copyright (c) Steve Scherf et al.
# Submitted via: Synapstar 1.0 
# 
DISCID=d90b8b0e
DTITLE=Various Artist - SD033 - Country Hits Today
DYEAR=1900
DGENRE=Country
TTITLE0=John Michael Montgomery - Friends
TTITLE1=Tim McGraw - Maybe We Should Just Sleep On It
TTITLE2=LeAnn Rimes - One-Way Ticket
TTITLE3=Ty Herndon - She Wants To Be Wanted Again
TTITLE4=Shania Twain - God Bless The Child
TTITLE5=Kevin Sharp - Nobody Knows
TTITLE6=Trisha Yearwood - Everybody Knows
TTITLE7=David Kersh - Goodnight Sweetheart
TTITLE8=Mark Chesnutt - It's A Little Too Late
TTITLE9=Rick Trevino - Running Out Of Reasons To Run
TTITLE10=Jo Dee Messina - Do Ya Wanna Make Something Of It
TTITLE11=James Bonamy - All I Do Is Love Her
TTITLE12=Daryle Singletary - Amen Kind Of Love
TTITLE13=Collin Raye - What If Jesus Comes Back Like That
EXTD=MediaType: Karaoke CD+G Producer: StarDisc
EXTT0=
EXTT1=
EXTT2=
EXTT3=
EXTT4=
EXTT5=
EXTT6=
EXTT7=
EXTT8=
EXTT9=
EXTT10=
EXTT11=
EXTT12=
EXTT13=
PLAYORDER=
